<svg width="16" height="16" version="1.1" viewBox="0 0 16 16" xmlns="http://www.w3.org/2000/svg">
 <g>
  <path d="m10.541 14.987c-0.40782-0.042543-0.77592-0.22306-1.0624-0.52101-0.22506-0.23406-0.37144-0.51317-0.44246-0.84366l-0.024999-0.11633v-3.0173l0.024542-0.11155c0.050231-0.22833 0.13077-0.42301 0.24969-0.60358 0.25158-0.38199 0.62992-0.63765 1.0915-0.73759l0.11098-0.024028h3.0279l0.10799 0.02392c0.46227 0.1024 0.82951 0.34856 1.0822 0.72538 0.15744 0.23481 0.25115 0.49681 0.2811 0.78589 0.01474 0.14229 0.01432 2.7737-4.69e-4 2.9088-0.02426 0.22159-0.07871 0.40869-0.17533 0.6025-0.0802 0.16088-0.18002 0.29759-0.31802 0.43559-0.28749 0.28749-0.63503 0.4516-1.045 0.49342-0.13223 0.01349-2.7775 0.01307-2.9072-4.67e-4z" style="fill-rule:evenodd;fill:#a5b7f3;stop-color:#000000;stroke-linecap:round;stroke-linejoin:round;stroke-width:2"/>
  <path d="m2.5413 14.987c-0.40782-0.042543-0.77592-0.22306-1.0624-0.52101-0.22506-0.23406-0.37144-0.51317-0.44246-0.84366l-0.024999-0.11633v-3.0173l0.024542-0.11155c0.050231-0.22833 0.13077-0.42301 0.24969-0.60358 0.25158-0.38199 0.62992-0.63765 1.0915-0.73759l0.11098-0.024028h3.0279l0.10799 0.02392c0.46227 0.1024 0.82951 0.34856 1.0822 0.72538 0.15744 0.23481 0.25115 0.49681 0.2811 0.78589 0.014743 0.14229 0.014319 2.7737-4.696e-4 2.9088-0.02426 0.22159-0.078709 0.40869-0.17533 0.6025-0.080205 0.16088-0.18002 0.29759-0.31802 0.43559-0.28749 0.28749-0.63503 0.4516-1.045 0.49342-0.13223 0.01349-2.7775 0.01307-2.9072-4.67e-4zm3.1216-2.0173c0.086821-0.03306 0.18365-0.11014 0.23733-0.18892 0.084478-0.12398 0.082336-0.10531 0.086106-0.75038 0.00229-0.39224-3.836e-4 -0.59054-0.0085-0.62962-0.053509-0.25775-0.31256-0.43952-0.56659-0.39757-0.15243 0.02517-0.29989 0.12982-0.37124 0.26344-0.056417 0.10567-0.060119 0.15059-0.06032 0.73194-1.073e-4 0.3101 0.00425 0.55631 0.010427 0.58964 0.033684 0.18166 0.18466 0.34715 0.36211 0.39694 0.081091 0.02275 0.22973 0.01535 0.31067-0.01547z" style="fill-rule:evenodd;fill:#a5b7f3;stop-color:#000000;stroke-linecap:round;stroke-linejoin:round;stroke-width:2"/>
  <path d="m10.488 6.9782c-0.41244-0.0552-0.81502-0.27548-1.0781-0.58993-0.14727-0.17602-0.31236-0.51029-0.36402-0.73709-0.035473-0.15573-0.038719-0.29471-0.038719-1.6574 0-1.6114-0.00145-1.5883 0.11976-1.9048 0.15412-0.40241 0.46087-0.72676 0.87017-0.92009 0.32929-0.15553 0.25372-0.14989 2.0061-0.14989 1.7745 0 1.6731-0.00844 2.0398 0.16994 0.42875 0.20858 0.74022 0.57891 0.88513 1.0524 0.04841 0.15817 0.04862 0.16463 0.05533 1.6887 0.0059 1.3429 0.0025 1.5507-0.02762 1.6999-0.07199 0.35611-0.24055 0.64953-0.52662 0.91669-0.18635 0.17403-0.4566 0.32104-0.7262 0.39503-0.16662 0.04573-0.19877 0.04673-1.6255 0.050568-0.80053 0.00215-1.5158-0.00416-1.5895-0.01402zm0.16999-2.0001c0.11197-0.033546 0.25837-0.16619 0.30623-0.27745 0.03345-0.077769 0.04009-0.16464 0.04669-0.61124 0.0093-0.6272 0.0013-0.70471-0.08735-0.85097-0.12897-0.21275-0.39157-0.29715-0.62593-0.20118-0.11038 0.045203-0.24359 0.19133-0.27745 0.30436-0.01654 0.055207-0.024988 0.28215-0.024988 0.67126 0 0.47975 0.00598 0.60218 0.03253 0.66571 0.10692 0.2559 0.36557 0.37882 0.63027 0.29951z" style="fill-rule:evenodd;fill:#a5b7f3;stop-color:#000000;stroke-linecap:round;stroke-linejoin:round;stroke-width:2"/>
  <path d="m2.496 6.978c-0.6825-0.091303-1.222-0.55752-1.429-1.235-0.046938-0.1536-0.047633-0.17434-0.055112-1.6429-0.0053731-1.0551-4.411e-4 -1.5326 0.016968-1.643 0.089093-0.56487 0.43587-1.0347 0.9436-1.2784 0.34217-0.16423 0.25148-0.15644 1.9246-0.16532 1.0834-0.00575 1.5421-9.944e-4 1.6574 0.017165 0.65137 0.10263 1.1685 0.56207 1.3743 1.2209l0.059733 0.19124-2.13e-5 1.5511c-2.12e-5 1.5474-1.274e-4 1.5515-0.048155 1.7211-0.17256 0.60944-0.62026 1.0569-1.2265 1.2257-0.16746 0.04665-0.19161 0.047415-1.6255 0.051469-0.80053 0.00226-1.5171-0.00412-1.5923-0.014189zm0.26682-2.0506c0.063053-0.038983 0.12741-0.10352 0.16692-0.1674l0.064307-0.10396 0.0062553-0.6177c0.0054227-0.53549 0.0015403-0.63005-0.029171-0.71046-0.15031-0.39359-0.67743-0.44789-0.89323-0.092013-0.036418 0.060055-0.072169 0.14522-0.079447 0.18926-0.00728 0.044037-0.013338 0.3102-0.013467 0.59148-2.819e-4 0.61669 0.014458 0.69063 0.16719 0.83876 0.11949 0.11589 0.20404 0.14738 0.37747 0.14059 0.10215-4e-3 0.15288-0.018914 0.23317-0.068554zm2.8808 0.050806c0.11197-0.033546 0.25837-0.16619 0.30623-0.27745 0.033452-0.077769 0.040088-0.16464 0.046692-0.61124 0.0092738-0.6272 0.0013174-0.70471-0.087348-0.85097-0.12897-0.21275-0.39157-0.29715-0.62593-0.20118-0.11038 0.045203-0.24359 0.19133-0.27745 0.30436-0.016541 0.055207-0.024989 0.28215-0.024989 0.67126 0 0.47975 0.00598 0.60218 0.03253 0.66571 0.10692 0.2559 0.36557 0.37882 0.63027 0.29951z" style="fill-rule:evenodd;fill:#a5b7f3;stop-color:#000000;stroke-linecap:round;stroke-linejoin:round;stroke-width:2"/>
 </g>
 <g style="display:none">
  <path d="m5 1c-2.216 0-4 1.784-4 4v6c0 2.216 1.784 4 4 4h6c2.216 0 4-1.784 4-4v-6c0-2.216-1.784-4-4-4zm-1 5c0.554 0 1 0.446 1 1v2c0 0.554-0.446 1-1 1s-1-0.446-1-1v-2c0-0.554 0.446-1 1-1zm8 0c0.554 0 1 0.446 1 1v2c0 0.554-0.446 1-1 1s-1-0.446-1-1v-2c0-0.554 0.446-1 1-1zm-1.8887 5.1074a1.0001 1.0001 0 0 1 0.7168 1.7207c-0.74987 0.74987-1.7676 1.1719-2.8281 1.1719s-2.0783-0.422-2.8281-1.1719a1.0001 1.0001 0 0 1 0.69727-1.7168 1.0001 1.0001 0 0 1 0.7168 0.30273c0.37534 0.37535 0.88325 0.58594 1.4141 0.58594s1.0387-0.21059 1.4141-0.58594a1.0001 1.0001 0 0 1 0.69727-0.30664z" fill="#a5b7f3"/>
 </g>
 <g fill="#a5b7f3" style="display:none">
  <path d="m2.7143 1c-0.94971 0-1.7143 0.76457-1.7143 1.7143v2.5714c0 0.94971 0.76457 1.7143 1.7143 1.7143h2.5714c0.94971 0 1.7143-0.76457 1.7143-1.7143v-2.5714c0-0.94971-0.76457-1.7143-1.7143-1.7143z"/>
  <path d="m10.714 1c-0.94971 0-1.7143 0.76457-1.7143 1.7143v2.5714c0 0.94971 0.76457 1.7143 1.7143 1.7143h2.5714c0.94971 0 1.7143-0.76457 1.7143-1.7143v-2.5714c0-0.94971-0.76457-1.7143-1.7143-1.7143z"/>
  <path d="m2.7143 9c-0.94971 0-1.7143 0.76457-1.7143 1.7143v2.5714c0 0.94972 0.76457 1.7143 1.7143 1.7143h2.5714c0.94971 0 1.7143-0.76457 1.7143-1.7143v-2.5714c0-0.94971-0.76457-1.7143-1.7143-1.7143z"/>
  <path d="m10.714 9c-0.94971 0-1.7143 0.76457-1.7143 1.7143v2.5714c0 0.94972 0.76457 1.7143 1.7143 1.7143h2.5714c0.94971 0 1.7143-0.76457 1.7143-1.7143v-2.5714c0-0.94971-0.76457-1.7143-1.7143-1.7143z"/>
 </g>
 <g style="display:none">
  <path d="M 2.4882812,3 A 0.5,0.5 0 0 0 2,3.5 0.5,0.5 0 0 0 2,3.5117188 V 4.5 A 0.5,0.5 0 0 0 2.5,5 0.5,0.5 0 0 0 3,4.5 0.5,0.5 0 0 0 3,4.4882812 V 3.5 A 0.5,0.5 0 0 0 2.5,3 0.5,0.5 0 0 0 2.4882812,3 Z" style="fill-rule:evenodd;fill:#fff;stop-color:#000000"/>
  <path d="m5.4737 3a0.5 0.5 0 0 0-0.48828 0.5 0.5 0.5 0 0 0 0 0.011719v0.98828a0.5 0.5 0 0 0 0.5 0.5 0.5 0.5 0 0 0 0.5-0.5 0.5 0.5 0 0 0 0-0.011719v-0.98828a0.5 0.5 0 0 0-0.5-0.5 0.5 0.5 0 0 0-0.011719 0z" style="fill-rule:evenodd;fill:#fff;stop-color:#000000"/>
  <path d="m10.488 3a0.5 0.5 0 0 0-0.48828 0.5 0.5 0.5 0 0 0 0 0.011719v0.98828a0.5 0.5 0 0 0 0.5 0.5 0.5 0.5 0 0 0 0.5-0.5 0.5 0.5 0 0 0 0-0.011719v-0.98828a0.5 0.5 0 0 0-0.5-0.5 0.5 0.5 0 0 0-0.01172 0z" style="fill-rule:evenodd;fill:#fff;stop-color:#000000"/>
  <path d="m5.4737 11a0.5 0.5 0 0 0-0.48828 0.5 0.5 0.5 0 0 0 0 0.01172v0.98828a0.5 0.5 0 0 0 0.5 0.5 0.5 0.5 0 0 0 0.5-0.5 0.5 0.5 0 0 0 0-0.01172v-0.98828a0.5 0.5 0 0 0-0.5-0.5 0.5 0.5 0 0 0-0.011719 0z" style="fill-rule:evenodd;fill:#fff;stop-color:#000000"/>
 </g>
</svg>
